<?xml version="1.0" encoding="utf-8"?>
<!-- Generator: Adobe Illustrator 21.0.0, SVG Export Plug-In . SVG Version: 6.00 Build 0)  -->
<svg version="1.1" id="Layer_1" xmlns="http://www.w3.org/2000/svg" xmlns:xlink="http://www.w3.org/1999/xlink" x="0px" y="0px"
	 viewBox="0 0 300 200" style="enable-background:new 0 0 300 200;" xml:space="preserve">
<g>
	<g>
		<path style="fill:#60B6EA;" d="M97.8-98.9c-4.5,12.7-12.4,22.5-23.7,29.4C64-63.5,52.7-60.4,40-60.4c-7.1,0-13.3-0.7-18.5-2
			c0.4-2,1.1-5.3,2-9.9c0.5-2.5,1.1-5.9,1.8-10c4.6,3,9.7,4.5,15.2,4.5c12.7,0,20.4-3.8,23.1-11.4c2.4-6.8-1.4-10.3-11.4-10.3
			c-6.2,0-12.5,1.2-18.9,3.7l-5.6-7.9c4.7-7.8,11.9-20.4,21.7-37.8c4.7-8.9,10.4-20,17.1-33.3h43.1h5.6c1.1-0.1,2.8-0.3,5-0.7
			l-19.7,36.1H67.6l-7.5,11.9c6.3-1.4,12.4-2.1,18.3-2.1c8.4,0,14.5,2.9,18.3,8.7C100.5-115.1,100.9-107.7,97.8-98.9z"/>
		<path style="fill:#60B6EA;" d="M199.7-121.4c-5.7,16.3-14.9,30.4-27.6,42.5c-12.9,12.3-25.2,18.5-37,18.5
			c-12.8,0-21.2-6.1-25.3-18.4c-3.8-11.7-2.9-25.8,3-42.3c6.5-18.5,16.1-32.6,28.6-42.5c10.9-8.5,22.6-12.8,35.1-12.8
			c12,0,20.4,4.4,25,13.3C206.5-153.1,206-139.2,199.7-121.4z M162.4-105c4.8-13.7,3.4-20.5-4.3-20.5c-7.6,0-13.8,7.1-18.8,21.2
			c-1.9,5.4-2.6,10.3-2.1,14.5c0.6,4.7,2.5,7,5.8,7c3.2,0,6.9-2.4,10.9-7.3C157.7-94.7,160.5-99.7,162.4-105z"/>
	</g>
	<g>
		<path style="fill:none;stroke:#004C6D;stroke-width:3;" d="M94.8-103.9c-4.5,12.7-12.4,22.5-23.7,29.4C61-68.5,49.7-65.4,37-65.4
			c-7.1,0-13.3-0.7-18.5-2c0.4-2,1.1-5.3,2-9.9c0.5-2.5,1.1-5.9,1.8-10c4.6,3,9.7,4.5,15.2,4.5c12.7,0,20.4-3.8,23.1-11.4
			c2.4-6.8-1.4-10.3-11.4-10.3c-6.2,0-12.5,1.2-18.9,3.7l-5.6-7.9c4.7-7.8,11.9-20.4,21.7-37.8c4.7-8.9,10.4-20,17.1-33.3h43.1h5.6
			c1.1-0.1,2.8-0.3,5-0.7l-19.7,36.1H64.6l-7.5,11.9c6.3-1.4,12.4-2.1,18.3-2.1c8.4,0,14.5,2.9,18.3,8.7
			C97.5-120.1,97.9-112.7,94.8-103.9z"/>
		<path style="fill:none;stroke:#004C6D;stroke-width:3;" d="M196.7-126.4c-5.7,16.3-14.9,30.4-27.6,42.5
			c-12.9,12.3-25.2,18.5-37,18.5c-12.8,0-21.2-6.1-25.3-18.4c-3.8-11.7-2.9-25.8,3-42.3c6.5-18.5,16.1-32.6,28.6-42.5
			c10.9-8.5,22.6-12.8,35.1-12.8c12,0,20.4,4.4,25,13.3C203.5-158.1,203-144.2,196.7-126.4z M159.4-110c4.8-13.7,3.4-20.5-4.3-20.5
			c-7.6,0-13.8,7.1-18.8,21.2c-1.9,5.4-2.6,10.3-2.1,14.5c0.6,4.7,2.5,7,5.8,7c3.2,0,6.9-2.4,10.9-7.3
			C154.7-99.7,157.5-104.7,159.4-110z"/>
	</g>
	<g>
		<path d="M236.6-160.6c0,4.8-1.2,9-3.6,12.6s-5.3,5.3-8.7,5.3c-3.7,0-6.7-1.8-9.1-5.4c-2.3-3.4-3.4-7.6-3.4-12.5
			c0-5.4,1.3-9.7,3.8-12.7c2.3-2.7,5.2-4.1,8.7-4.1c3.5,0,6.4,1.4,8.6,4.1C235.4-170.3,236.6-166.1,236.6-160.6z M262.6-173.2
			l-36.1,58.9l-6.2-3.1l32.8-59.9L262.6-173.2z M227.6-155.6c0-3.3-1.1-5-3.3-5s-3.3,1.7-3.3,5.1c0,1.3,0.3,2.5,0.9,3.5
			c0.6,1.2,1.4,1.7,2.4,1.7c0.9,0,1.7-0.6,2.3-1.8C227.3-153.2,227.6-154.4,227.6-155.6z M271-133.6c0,4.9-1.2,9.1-3.6,12.7
			s-5.3,5.4-8.7,5.4c-3.6,0-6.7-1.8-9.1-5.4c-2.3-3.5-3.5-7.6-3.5-12.5c0-5.5,1.3-9.7,3.8-12.8c2.3-2.7,5.2-4.1,8.8-4.1
			c3.5,0,6.3,1.4,8.5,4.1C269.7-143.2,270.9-139,271-133.6z M261.9-128.5c0-3.4-1.1-5.1-3.2-5.1c-2.2,0-3.3,1.7-3.3,5.1
			c0,1.3,0.3,2.5,0.9,3.6c0.7,1.2,1.5,1.8,2.4,1.8c0.9,0,1.7-0.6,2.4-1.8C261.6-126,261.9-127.2,261.9-128.5z"/>
	</g>
	<g>
		<path style="fill:#004C6D;" d="M223.7-85c-1,5.7-3.4,10.6-7,14.6c-3.8,4.2-8.2,6.2-13,6.2c-5,0-8.7-2.1-11-6.3
			c-2.2-3.9-2.8-8.8-1.8-14.5c1.1-6.1,3.5-11,7.3-14.5c3.6-3.3,7.8-4.9,12.6-4.9c4.8,0,8.3,1.7,10.7,5
			C224.1-95.9,224.8-91.1,223.7-85z M211.2-80.7c0.8-4.5-0.3-6.8-3.4-6.8c-3,0-4.9,2.3-5.7,6.8c-0.3,1.8-0.2,3.5,0.3,5.1
			c0.6,1.8,1.5,2.7,2.8,2.7c1.3,0,2.5-0.9,3.8-2.7C210.2-77.2,210.9-78.9,211.2-80.7z"/>
		<path style="fill:#004C6D;" d="M254.2-102.9l-3.7,15.4c-0.6-0.1-1.8-0.2-3.8-0.4c-1.2,0-2.5-0.1-4.1-0.1l-1.8,7.9
			c1.7,0,4.3-0.1,7.8-0.4c-0.3,0.7-0.8,1.9-1.4,3.6c-0.4,1-0.8,2.2-1.2,3.6c-0.4-0.1-1.5-0.2-3.1-0.4c-1.2-0.1-2.4-0.1-3.6-0.1
			l-1.7,8.5H224l2.6-19.1c0.6-4.4,1.4-10.5,2.1-18.4H254.2z"/>
		<path style="fill:#004C6D;" d="M281.5-102.9l-3.7,15.4c-0.6-0.1-1.8-0.2-3.8-0.4c-1.2,0-2.5-0.1-4.1-0.1l-1.8,7.9
			c1.7,0,4.3-0.1,7.8-0.4c-0.3,0.7-0.8,1.9-1.4,3.6c-0.4,1-0.8,2.2-1.2,3.6c-0.4-0.1-1.5-0.2-3.1-0.4c-1.2-0.1-2.4-0.1-3.6-0.1
			l-1.7,8.5h-13.7l2.6-19.1c0.6-4.4,1.4-10.5,2.1-18.4H281.5z"/>
	</g>
</g>
<g>
	<g>
		<path style="fill:#60B6EA;" d="M522.1-175.2c-3.9,10.1-10.8,28.2-20.6,54c-4.8,12.9-12.2,33.2-22.2,60.9h-33.2
			c5.5-15.4,10.4-29.6,14.7-42.9c1.3-3.9,4.7-14.4,10.3-31.5c-0.9,0.1-2.9,0.5-5.9,1.2c-1.6,0.3-3.6,0.9-5.9,1.7l1.8-25
			c6.5-2.4,18-6.9,34.6-13.5c5.2-2.1,12.1-5.2,20.7-9.1L522.1-175.2z"/>
		<path style="fill:#60B6EA;" d="M595.1-132.2c-3.8,10.6-11.8,23.6-24.3,38.8C560-80.1,548.4-68,536.1-57.4l-21.8-3.5
			c3.4-3.6,6.5-7,9.3-10.1c6.9-7.7,11.9-13.8,14.9-18.4c-8.5,0.1-15.1-2.9-19.7-8.9c-5.9-7.8-6.3-19.1-1.1-33.9
			c4.4-12.6,12.1-23.2,23-31.9c10.9-8.7,21.9-13.1,33.1-13.1c10.7,0,18.1,4.3,22.1,12.8C600-155.9,599.7-145.2,595.1-132.2z
			 M562-123.8c1.1-3,1-5.5-0.2-7.5c-1.2-2-3.2-3-6-3c-2.5,0-5,0.9-7.3,2.8c-2.6,2-4.5,4.8-5.8,8.3c-3.2,8.9,0.3,13.7,10.3,14.2
			c1.1-1,2.6-3,4.3-5.7C559.4-118,561-121,562-123.8z"/>
	</g>
	<g>
		<path d="M422.8-104.5c0,0-1.3-0.6-3.7-1.8s-4.4-1.8-6-1.8c-3,0-4.6,1.4-4.6,4.2c0,1.6,1.4,3.3,4.2,5c4.5,2.7,7.1,4.4,7.9,5
			c2.8,2.5,4.2,5.4,4.2,8.9c0,7.3-4.5,12.2-13.6,14.7c0.2,4.3,0.3,6.7,0.3,7.2c0,0.3-0.3,0.4-0.9,0.5c-0.4,0.1-1,0.1-1.8,0
			c-0.9-0.1-1.3-0.1-1.3-0.1c-0.4,0-0.9,0-1.5,0.1c-0.7,0.1-1.2,0.1-1.5,0.1c-0.2,0-0.4,0-0.6-0.1c-0.2-0.2-0.2-0.9-0.2-2
			c0-0.9,0.1-2.2,0.2-4c-7.3,0-11-0.5-11.1-1.5c0-0.2,0-0.4,0-0.8c0-0.4,0-0.7,0-0.8c0-1.1-0.1-2.4-0.3-3.9
			c-0.1-0.5-0.3-1.3-0.6-2.6c-0.3-1.1-0.5-2-0.5-2.6s0.3-0.9,0.9-0.9c0.7,0,1.9,0.2,3.6,0.6c1.7,0.4,3.1,0.6,4,0.6
			c4.8,0,7.2-1.5,7.2-4.4c0-1.5-1.4-3.3-4.1-5.2c-4.5-3.1-7-5-7.7-5.7c-2.7-2.6-4.1-5.5-4.1-8.8c0-3.6,1.3-6.8,3.9-9.6
			c2.5-2.6,5.6-4.3,9.2-5c0,0.2,0-0.4-0.1-2c-0.1-1.2,0-2.1,0-2.7c0.1-0.9,0.4-1.4,0.8-1.4h7c0.3,0,0.5,0.4,0.6,1.2
			c0.1,0.6,0.1,1.4,0,2.5c-0.1,1.4-0.1,2.1-0.1,1.9c1.6,0.1,4.2,0.7,7.7,1.8c4,1.3,6.1,2.4,6.1,3.3c0,0.2-0.1,0.5-0.2,1.1
			c-0.4,0.8-0.9,2.1-1.5,3.7c-0.2,0.9-0.5,2.3-1,4.1C423.6-104.8,423.3-104.5,422.8-104.5z"/>
	</g>
	<g>
		<path style="fill:none;stroke:#004C6D;stroke-width:3;" d="M516.3-177.3c-3.9,10.1-10.8,28.2-20.6,54
			c-4.8,12.9-12.2,33.2-22.2,60.9h-33.2c5.5-15.4,10.4-29.6,14.7-42.9c1.3-3.9,4.7-14.4,10.3-31.5c-0.9,0.1-2.9,0.5-5.9,1.2
			c-1.6,0.3-3.6,0.9-5.9,1.7l1.8-25c6.5-2.4,18-6.9,34.6-13.5c5.2-2.1,12.1-5.2,20.7-9.1L516.3-177.3z"/>
		<path style="fill:none;stroke:#004C6D;stroke-width:3;" d="M589.4-134.3c-3.8,10.6-11.8,23.6-24.3,38.8
			c-10.9,13.4-22.5,25.4-34.8,36.1l-21.8-3.5c3.4-3.6,6.5-7,9.3-10.1c6.9-7.7,11.9-13.8,14.9-18.4c-8.5,0.1-15.1-2.9-19.7-8.9
			c-5.9-7.8-6.3-19.1-1.1-33.9c4.4-12.6,12.1-23.2,23-31.9c10.9-8.7,21.9-13.1,33.1-13.1c10.7,0,18.1,4.3,22.1,12.8
			C594.2-158,593.9-147.2,589.4-134.3z M556.2-125.8c1.1-3,1-5.5-0.2-7.5c-1.2-2-3.2-3-6-3c-2.5,0-5,0.9-7.3,2.8
			c-2.6,2-4.5,4.8-5.8,8.3c-3.2,8.9,0.3,13.7,10.3,14.2c1.1-1,2.6-3,4.3-5.7C553.7-120.1,555.2-123.1,556.2-125.8z"/>
	</g>
	<g>
		<path style="fill:#004C6D;" d="M354.7-157.2c-0.6-0.2-1-0.3-1.3-0.3c-0.4,0-0.7,0.2-1,0.5c-0.4,0.4-0.6,0.9-0.6,1.5
			c0,0.5,0.3,1.4,1,2.7c0.7,1.3,1,2.6,1,3.7c0,1.6-0.5,3-1.5,4c-1,1-2.1,1.5-3.5,1.5c-1.3,0-2.2-0.1-2.9-0.3
			c-0.1-0.5-0.2-1.2-0.4-2.2c-0.1-0.6-0.3-1.3-0.5-2.2c0.9,0.3,1.5,0.4,1.8,0.4c1.2,0,1.8-0.6,1.8-1.7c0-0.8-0.2-1.5-0.7-2.2
			c-0.8-0.8-1.5-1.7-2.3-2.6c-1.5-1.7-2.2-3.6-2.2-5.9c0-2.4,0.7-4.2,2.1-5.4c1.2-1.1,2.9-1.6,4.9-1.6c1.2,0,2.5,0.2,3.9,0.6
			L354.7-157.2z"/>
		<path style="fill:#004C6D;" d="M370.1-166.4l-0.3,9.3c-0.3-0.1-0.8-0.1-1.5-0.2c-0.4,0-1.1-0.1-2-0.1c0,0.6-0.1,2-0.2,4.2
			c-0.1,2.2-0.2,5.3-0.4,9.5h-5.7c-0.1-2-0.2-5.1-0.4-9.4c-0.1-1.5-0.2-2.9-0.2-4.3l-1.9,0.1l-1.7,0.2l-0.3-9.3H370.1z"/>
		<path style="fill:#004C6D;" d="M385.3-143.8h-6.5l-0.4-2c-0.2,0.1-0.6,0.4-1.4,0.9c-0.5,0.4-1,0.9-1.6,1.5l-0.7-1.8
			c-0.1-0.4-0.3-0.8-0.6-1.5l-0.6,2.8h-3.4c0.5-2.4,1.3-6.4,2.3-12c0.6-3.7,1.2-7.3,1.6-10.6h7.1c0.2,1.5,0.8,5.1,1.8,10.8
			C383.6-152.7,384.3-148.8,385.3-143.8z M377.8-148.6c-0.1-0.5-0.4-1.4-0.7-2.5c-0.2-0.6-0.5-1.5-0.9-2.7c-0.2,0.6-0.5,1.5-0.9,2.8
			c-0.2,0.7-0.5,1.8-0.8,3.1c0.2,0,0.8-0.1,1.6-0.2C376.7-148.3,377.2-148.4,377.8-148.6z"/>
		<path style="fill:#004C6D;" d="M401.6-158c0,1.8-0.4,3.4-1.2,4.8c-0.7,1.2-1.6,2.1-2.7,2.6c0.2,0.4,0.8,1.4,1.7,2.8
			c0.4,0.6,1.1,1.5,2.1,2.6c-0.4,0.2-1.2,0.6-2.4,1.3c-0.9,0.5-1.7,1-2.5,1.5c-0.2-0.4-0.7-1.3-1.5-2.7c-0.4-0.7-0.9-2-1.6-3.8h0
			l-0.1,5.2h-6.7c-0.1-2.1-0.2-5.7-0.4-10.6c-0.1-2.9-0.2-6.9-0.5-12c2.2-0.3,4.1-0.4,5.9-0.4C398.3-166.9,401.6-163.9,401.6-158z
			 M396.2-154.8c0-0.9-0.3-1.6-0.9-2c-0.5-0.3-1-0.4-1.8-0.4l-0.1,5c0.7,0,1.2-0.2,1.8-0.5C395.9-153.1,396.2-153.8,396.2-154.8z"/>
		<path style="fill:#004C6D;" d="M416.7-166.4l-0.3,9.3c-0.3-0.1-0.8-0.1-1.5-0.2c-0.4,0-1.1-0.1-2-0.1c0,0.6-0.1,2-0.2,4.2
			c-0.1,2.2-0.2,5.3-0.4,9.5h-5.7c-0.1-2-0.2-5.1-0.4-9.4c-0.1-1.5-0.2-2.9-0.2-4.3l-1.9,0.1l-1.7,0.2l-0.3-9.3H416.7z"/>
		<path style="fill:#004C6D;" d="M429.9-166.4l-0.5,9.3c-0.3-0.1-0.9-0.2-1.9-0.3c-0.7-0.1-1.4-0.1-2.2-0.1l-0.2,2.8
			c0.9,0,2.3,0,4.2-0.1c-0.1,0.4-0.2,1-0.4,2c-0.1,0.6-0.2,1.3-0.3,2.1c-0.2-0.1-0.8-0.2-1.7-0.3c-0.4,0-1.1,0-1.9,0l-0.1,3.3
			c0.6,0,1.7-0.1,3.3-0.2c0.3,0,0.8-0.1,1.5-0.4c-0.1,0.3-0.2,1-0.4,2.2c-0.1,0.6-0.2,1.4-0.4,2.3h-10.6l-0.3-11.6
			c-0.1-2.6-0.2-6.3-0.5-11.1H429.9z"/>
		<path style="fill:#004C6D;" d="M447-154.9c0,3.5-0.9,6.3-2.6,8.4c-1.8,2.1-4.4,3.2-7.7,3.2c-2.1,0-3.8-0.1-4.9-0.4l-0.3-11
			c-0.1-2.8-0.3-6.7-0.6-11.6c1.7-0.3,3.5-0.5,5.4-0.5c3.3,0,5.9,1,7.8,2.9C446-161.9,447-158.9,447-154.9z M442.2-153.1
			c0-1.4-0.4-2.5-1.1-3.2c-0.6-0.6-1.4-0.8-2.4-0.8l-0.2,9.2c1-0.1,1.8-0.5,2.5-1.2C441.8-150,442.2-151.3,442.2-153.1z"/>
		<path style="fill:#004C6D;" d="M357.9-107.6h-6.5l-0.4-2c-0.2,0.1-0.6,0.4-1.4,0.9c-0.5,0.4-1,0.9-1.6,1.5l-0.7-1.8
			c-0.1-0.4-0.3-0.8-0.6-1.5l-0.6,2.8h-3.4c0.5-2.4,1.3-6.4,2.3-12c0.6-3.7,1.2-7.3,1.6-10.6h7.1c0.2,1.5,0.8,5.1,1.8,10.8
			C356.2-116.5,357-112.5,357.9-107.6z M350.5-112.4c-0.1-0.5-0.4-1.4-0.7-2.5c-0.2-0.6-0.5-1.5-0.9-2.7c-0.2,0.6-0.5,1.5-0.9,2.8
			c-0.2,0.7-0.5,1.8-0.8,3.1c0.2,0,0.8-0.1,1.6-0.2C349.3-112,349.9-112.2,350.5-112.4z"/>
		<path style="fill:#004C6D;" d="M372.8-130.2l-0.3,9.3c-0.3-0.1-0.8-0.1-1.5-0.2c-0.4,0-1.1-0.1-2-0.1c0,0.6-0.1,2-0.2,4.2
			c-0.1,2.2-0.2,5.3-0.4,9.5h-5.7c-0.1-2-0.2-5.1-0.4-9.4c-0.1-1.5-0.2-2.9-0.2-4.3l-1.9,0.1l-1.7,0.2l-0.3-9.3H372.8z"/>
	</g>
</g>
<g>
	<path style="fill:#60B6EA;" d="M110.2,77c-3.3,9.5-7.7,16.9-13,22.4c-5,5.2-12.5,10.1-22.5,14.6c8.5,4.4,10.9,11.8,7.2,22.2
		c-3,8.4-8.4,14.9-16.2,19.6c-7,4.2-14.9,6.2-23.7,6.2c-8.4,0-13.4-0.3-15-0.9l1.4-10.9c0.3-2.6,0.6-6.2,1.1-10.7
		c4.6,1.8,8.9,2.7,12.8,2.7c3.4,0,6.6-1,9.5-3c2.9-2,4.9-4.5,6-7.6c1-2.9,0.8-5.4-0.6-7.4c-1.6-2.2-4.5-3.3-8.5-3.3
		c-1,0-2,0-3.1,0.1l2.4-14.8c4.4-0.5,8.1-2.1,11.2-4.9c2.3-2.1,3.8-4.4,4.7-7c2.3-6.6-0.2-9.9-7.6-9.9c-4.2,0-9.6,0.9-15.9,2.6
		l15.8-36.8c9.6-3,19.2-4.4,28.7-4.4c10.4,0.1,18,3,22.9,8.8C112.5,60.5,113.4,67.9,110.2,77z"/>
	<path style="fill:#60B6EA;" d="M190.2,101.7c-5.7,16.3-14.7,30.4-26.9,42.5c-12.4,12.3-24.3,18.5-35.5,18.5
		c-12.2,0-20.1-6.1-23.7-18.4c-3.4-11.7-2.3-25.8,3.6-42.3c6.5-18.5,15.8-32.6,27.9-42.5c10.5-8.5,21.7-12.8,33.5-12.8
		c11.4,0,19.3,4.4,23.5,13.3C197.3,70,196.5,83.8,190.2,101.7z M154.5,118c4.8-13.7,3.6-20.5-3.8-20.5c-7.2,0-13.3,7.1-18.2,21.2
		c-1.9,5.4-2.7,10.3-2.3,14.5c0.4,4.7,2.3,7,5.4,7c3.1,0,6.6-2.4,10.5-7.3C149.8,128.3,152.6,123.4,154.5,118z"/>
</g>
<g>
	<path style="fill:none;stroke:#004C6D;stroke-width:3;" d="M106.2,72c-3.3,9.5-7.7,16.9-13,22.4c-5,5.2-12.5,10.1-22.5,14.6
		c8.5,4.4,10.9,11.8,7.2,22.2c-3,8.4-8.4,14.9-16.2,19.6c-7,4.2-14.9,6.2-23.7,6.2c-8.4,0-13.4-0.3-15-0.9l1.4-10.9
		c0.3-2.6,0.6-6.2,1.1-10.7c4.6,1.8,8.9,2.7,12.8,2.7c3.4,0,6.6-1,9.5-3c2.9-2,4.9-4.5,6-7.6c1-2.9,0.8-5.4-0.6-7.4
		c-1.6-2.2-4.5-3.3-8.5-3.3c-1,0-2,0-3.1,0.1l2.4-14.8c4.4-0.5,8.1-2.1,11.2-4.9c2.3-2.1,3.8-4.4,4.7-7c2.3-6.6-0.2-9.9-7.6-9.9
		c-4.2,0-9.6,0.9-15.9,2.6l15.8-36.8c9.6-3,19.2-4.4,28.7-4.4c10.4,0.1,18,3,22.9,8.8C108.5,55.5,109.4,62.9,106.2,72z"/>
	<path style="fill:none;stroke:#004C6D;stroke-width:3;" d="M186.2,96.7c-5.7,16.3-14.7,30.4-26.9,42.5
		c-12.4,12.3-24.3,18.5-35.5,18.5c-12.2,0-20.1-6.1-23.7-18.4c-3.4-11.7-2.3-25.8,3.6-42.3c6.5-18.5,15.8-32.6,27.9-42.5
		c10.5-8.5,21.7-12.8,33.5-12.8c11.4,0,19.3,4.4,23.5,13.3C193.3,65,192.5,78.8,186.2,96.7z M150.5,113c4.8-13.7,3.6-20.5-3.8-20.5
		c-7.2,0-13.3,7.1-18.2,21.2c-1.9,5.4-2.7,10.3-2.3,14.5c0.4,4.7,2.3,7,5.4,7c3.1,0,6.6-2.4,10.5-7.3
		C145.8,123.3,148.6,118.4,150.5,113z"/>
</g>
<g>
	<path d="M207.7,140.7c-1.5,4.2-4,7.5-7.5,9.9c-3.6,2.5-7.8,3.7-12.7,3.7c-3.1,0-5.5-0.2-7.1-0.5l4.2-12.9c1.1-3.3,2.4-7.9,4.2-13.7
		c2.6-0.4,5.3-0.5,8.1-0.5c4.9,0,8.3,1.1,10.2,3.4C209.2,132.5,209.4,136,207.7,140.7z M199.8,142.8c0.6-1.7,0.5-3-0.3-3.8
		c-0.7-0.7-1.7-1-3.2-0.9l-4.2,10.9c1.5-0.1,2.9-0.6,4.2-1.4C197.9,146.5,199,144.9,199.8,142.8z"/>
	<path d="M225.5,153.8H216l0.2-2.3c-0.3,0.1-1.1,0.5-2.4,1.1c-0.8,0.4-1.8,1-2.9,1.8l-0.2-2.1c0-0.4-0.1-1-0.2-1.8l-2.2,3.4h-5
		c1.8-2.9,4.7-7.6,8.6-14.2c2.6-4.4,4.9-8.6,7-12.5h10.5c-0.3,1.8-1,6.1-2,12.7C226.9,143.3,226.3,148,225.5,153.8z M216.6,148.1
		c0-0.6,0-1.6,0-3c0-0.8-0.1-1.8-0.2-3.2c-0.5,0.7-1.3,1.8-2.5,3.3c-0.6,0.9-1.4,2.1-2.4,3.6c0.3,0,1.2-0.1,2.4-0.2
		C214.8,148.6,215.7,148.4,216.6,148.1z"/>
	<path d="M260,127.1l-5.5,6.1c-1.5,1.7-3.5,4-6.1,7c-0.7,1.6-1.7,3.9-3.1,6.9c-0.6,1.6-1.6,3.9-2.8,6.8h-8.9
		c0.5-1.4,1.2-3.7,2.2-6.9c0.3-1.2,1-3.5,1.8-6.8c-0.2-1.2-0.4-3.3-0.8-6c-0.3-1.7-0.8-4-1.5-7h12.8c-0.1,0.8-0.1,1.9-0.2,3.6l0,4.7
		c0.8-1.1,2-2.6,3.5-4.7c0.6-0.8,1.3-2,2.3-3.5H260z"/>
	<path d="M273.5,138c-0.8-0.2-1.4-0.3-1.8-0.3c-0.5,0-1.1,0.2-1.7,0.6c-0.7,0.5-1.2,1-1.5,1.8c-0.2,0.6-0.1,1.6,0.3,3.2
		c0.4,1.6,0.4,3.1-0.1,4.4c-0.7,1.9-2,3.5-3.9,4.8c-1.8,1.2-3.8,1.8-5.9,1.8c-1.9,0-3.3-0.1-4.1-0.4c0.1-0.5,0.2-1.4,0.4-2.6
		c0.1-0.7,0.2-1.5,0.3-2.6c1.2,0.3,2,0.5,2.4,0.5c1.7,0,2.8-0.7,3.3-2c0.3-1,0.3-1.8-0.1-2.6c-0.8-1-1.5-2-2.3-3
		c-1.5-1.9-1.8-4.3-0.8-6.9c1-2.8,2.8-4.9,5.4-6.4c2.3-1.3,4.9-1.9,8-1.9c1.7,0,3.6,0.3,5.5,0.7L273.5,138z"/>
</g>
</svg>
