<?xml version="1.0" encoding="utf-8"?>
<!-- Generator: Adobe Illustrator 21.0.0, SVG Export Plug-In . SVG Version: 6.00 Build 0)  -->
<svg version="1.1" id="Layer_1" xmlns="http://www.w3.org/2000/svg" xmlns:xlink="http://www.w3.org/1999/xlink" x="0px" y="0px"
	 viewBox="0 0 300 200" style="enable-background:new 0 0 300 200;" xml:space="preserve">
<g>
	<g>
		<path style="fill:#60B6EA;" d="M98.3,122c-4.5,12.7-12.4,22.5-23.7,29.4c-10.1,6.1-21.4,9.1-34.1,9.1c-7.1,0-13.3-0.7-18.5-2
			c0.4-2,1.1-5.3,2-9.9c0.5-2.5,1.1-5.9,1.8-10c4.6,3,9.7,4.5,15.2,4.5c12.7,0,20.4-3.8,23.1-11.4c2.4-6.8-1.4-10.3-11.4-10.3
			c-6.2,0-12.5,1.2-18.9,3.7l-5.6-7.9c4.7-7.8,11.9-20.4,21.7-37.8c4.7-8.9,10.4-20,17.1-33.3h43.1h5.6c1.1-0.1,2.8-0.3,5-0.7
			l-19.7,36.1H68.1l-7.5,11.9c6.3-1.4,12.4-2.1,18.3-2.1c8.4,0,14.5,2.9,18.3,8.7C101,105.8,101.4,113.2,98.3,122z"/>
		<path style="fill:#60B6EA;" d="M200.2,99.5c-5.7,16.3-14.9,30.4-27.6,42.5c-12.9,12.3-25.2,18.5-37,18.5
			c-12.8,0-21.2-6.1-25.3-18.4c-3.8-11.7-2.9-25.8,3-42.3c6.5-18.5,16.1-32.6,28.6-42.5c10.9-8.5,22.6-12.8,35.1-12.8
			c12,0,20.4,4.4,25,13.3C207,67.8,206.5,81.7,200.2,99.5z M162.9,115.9c4.8-13.7,3.4-20.5-4.3-20.5c-7.6,0-13.8,7.1-18.8,21.2
			c-1.9,5.4-2.6,10.3-2.1,14.5c0.6,4.7,2.5,7,5.8,7c3.2,0,6.9-2.4,10.9-7.3C158.2,126.1,161,121.2,162.9,115.9z"/>
	</g>
	<g>
		<path style="fill:none;stroke:#004C6D;stroke-width:3;" d="M95.3,117c-4.5,12.7-12.4,22.5-23.7,29.4c-10.1,6.1-21.4,9.1-34.1,9.1
			c-7.1,0-13.3-0.7-18.5-2c0.4-2,1.1-5.3,2-9.9c0.5-2.5,1.1-5.9,1.8-10c4.6,3,9.7,4.5,15.2,4.5c12.7,0,20.4-3.8,23.1-11.4
			c2.4-6.8-1.4-10.3-11.4-10.3c-6.2,0-12.5,1.2-18.9,3.7l-5.6-7.9c4.7-7.8,11.9-20.4,21.7-37.8c4.7-8.9,10.4-20,17.1-33.3h43.1h5.6
			c1.1-0.1,2.8-0.3,5-0.7L97.9,76.4H65.1l-7.5,11.9c6.3-1.4,12.4-2.1,18.3-2.1c8.4,0,14.5,2.9,18.3,8.7
			C98,100.8,98.4,108.2,95.3,117z"/>
		<path style="fill:none;stroke:#004C6D;stroke-width:3;" d="M197.2,94.5c-5.7,16.3-14.9,30.4-27.6,42.5
			c-12.9,12.3-25.2,18.5-37,18.5c-12.8,0-21.2-6.1-25.3-18.4c-3.8-11.7-2.9-25.8,3-42.3c6.5-18.5,16.1-32.6,28.6-42.5
			c10.9-8.5,22.6-12.8,35.1-12.8c12,0,20.4,4.4,25,13.3C204,62.8,203.5,76.7,197.2,94.5z M159.9,110.9c4.8-13.7,3.4-20.5-4.3-20.5
			c-7.6,0-13.8,7.1-18.8,21.2c-1.9,5.4-2.6,10.3-2.1,14.5c0.6,4.7,2.5,7,5.8,7c3.2,0,6.9-2.4,10.9-7.3
			C155.2,121.1,158,116.2,159.9,110.9z"/>
	</g>
	<g>
		<path d="M237.1,60.3c0,4.8-1.2,9-3.6,12.6s-5.3,5.3-8.7,5.3c-3.7,0-6.7-1.8-9.1-5.4c-2.3-3.4-3.4-7.6-3.4-12.5
			c0-5.4,1.3-9.7,3.8-12.7c2.3-2.7,5.2-4.1,8.7-4.1c3.5,0,6.4,1.4,8.6,4.1C235.9,50.6,237.1,54.8,237.1,60.3z M263.1,47.7
			l-36.1,58.9l-6.2-3.1l32.8-59.9L263.1,47.7z M228.1,65.3c0-3.3-1.1-5-3.3-5s-3.3,1.7-3.3,5.1c0,1.3,0.3,2.5,0.9,3.5
			c0.6,1.2,1.4,1.7,2.4,1.7c0.9,0,1.7-0.6,2.3-1.8C227.8,67.7,228.1,66.5,228.1,65.3z M271.5,87.3c0,4.9-1.2,9.1-3.6,12.7
			s-5.3,5.4-8.7,5.4c-3.6,0-6.7-1.8-9.1-5.4c-2.3-3.5-3.5-7.6-3.5-12.5c0-5.5,1.3-9.7,3.8-12.8c2.3-2.7,5.2-4.1,8.8-4.1
			c3.5,0,6.3,1.4,8.5,4.1C270.2,77.7,271.4,81.9,271.5,87.3z M262.4,92.4c0-3.4-1.1-5.1-3.2-5.1c-2.2,0-3.3,1.7-3.3,5.1
			c0,1.3,0.3,2.5,0.9,3.6c0.7,1.2,1.5,1.8,2.4,1.8c0.9,0,1.7-0.6,2.4-1.8C262.1,94.8,262.4,93.7,262.4,92.4z"/>
	</g>
	<g>
		<path style="fill:#004C6D;" d="M224.2,135.9c-1,5.7-3.4,10.6-7,14.6c-3.8,4.2-8.2,6.2-13,6.2c-5,0-8.7-2.1-11-6.3
			c-2.2-3.9-2.8-8.8-1.8-14.5c1.1-6.1,3.5-11,7.3-14.5c3.6-3.3,7.8-4.9,12.6-4.9c4.8,0,8.3,1.7,10.7,5
			C224.6,125,225.3,129.8,224.2,135.9z M211.7,140.2c0.8-4.5-0.3-6.8-3.4-6.8c-3,0-4.9,2.3-5.7,6.8c-0.3,1.8-0.2,3.5,0.3,5.1
			c0.6,1.8,1.5,2.7,2.8,2.7c1.3,0,2.5-0.9,3.8-2.7C210.7,143.7,211.4,142,211.7,140.2z"/>
		<path style="fill:#004C6D;" d="M254.7,118l-3.7,15.4c-0.6-0.1-1.8-0.2-3.8-0.4c-1.2,0-2.5-0.1-4.1-0.1l-1.8,7.9
			c1.7,0,4.3-0.1,7.8-0.4c-0.3,0.7-0.8,1.9-1.4,3.6c-0.4,1-0.8,2.2-1.2,3.6c-0.4-0.1-1.5-0.2-3.1-0.4c-1.2-0.1-2.4-0.1-3.6-0.1
			l-1.7,8.5h-13.7l2.6-19.1c0.6-4.4,1.4-10.5,2.1-18.4H254.7z"/>
		<path style="fill:#004C6D;" d="M282,118l-3.7,15.4c-0.6-0.1-1.8-0.2-3.8-0.4c-1.2,0-2.5-0.1-4.1-0.1l-1.8,7.9
			c1.7,0,4.3-0.1,7.8-0.4c-0.3,0.7-0.8,1.9-1.4,3.6c-0.4,1-0.8,2.2-1.2,3.6c-0.4-0.1-1.5-0.2-3.1-0.4c-1.2-0.1-2.4-0.1-3.6-0.1
			l-1.7,8.5h-13.7l2.6-19.1c0.6-4.4,1.4-10.5,2.1-18.4H282z"/>
	</g>
</g>
</svg>
