<?xml version="1.0" encoding="utf-8"?>
<!-- Generator: Adobe Illustrator 21.0.0, SVG Export Plug-In . SVG Version: 6.00 Build 0)  -->
<svg version="1.1" id="Layer_1" xmlns="http://www.w3.org/2000/svg" xmlns:xlink="http://www.w3.org/1999/xlink" x="0px" y="0px"
	 viewBox="0 0 300 200" style="enable-background:new 0 0 300 200;" xml:space="preserve">
<g>
	<g>
		<path style="fill:#60B6EA;" d="M199.8,43.1c-3.9,10-10.6,27.7-20.3,53.1c-4.7,12.7-12,32.6-21.8,59.8h-32.6
			c5.4-15.1,10.2-29.1,14.4-42.1c1.2-3.8,4.6-14.1,10.2-30.9c-0.9,0.1-2.8,0.5-5.8,1.2c-1.6,0.3-3.5,0.9-5.8,1.7l1.7-24.6
			c6.3-2.3,17.7-6.8,34-13.3c5.1-2.1,11.9-5.1,20.4-8.9L199.8,43.1z"/>
		<path style="fill:#60B6EA;" d="M271.6,85.4c-3.7,10.4-11.6,23.1-23.8,38.1c-10.7,13.1-22.1,25-34.2,35.4l-21.4-3.4
			c3.3-3.5,6.4-6.8,9.2-10c6.8-7.6,11.7-13.6,14.7-18.1c-8.4,0.1-14.8-2.8-19.3-8.7c-5.8-7.7-6.2-18.8-1.1-33.3
			c4.4-12.4,11.9-22.8,22.6-31.4c10.7-8.6,21.5-12.9,32.5-12.9c10.5,0,17.8,4.2,21.8,12.6C276.3,62.1,276.1,72.6,271.6,85.4z
			 M239,93.7c1.1-3,1-5.4-0.2-7.4c-1.2-2-3.2-2.9-5.9-2.9c-2.5,0-4.9,0.9-7.2,2.8c-2.6,2-4.4,4.7-5.7,8.1c-3.1,8.8,0.3,13.5,10.1,14
			c1.1-1,2.5-2.9,4.3-5.6C236.5,99.3,238,96.3,239,93.7z"/>
	</g>
	<g>
		<path d="M102.3,112.6c0,0-1.2-0.6-3.6-1.7s-4.4-1.7-5.9-1.7c-3,0-4.5,1.4-4.5,4.2c0,1.6,1.4,3.2,4.2,4.9c4.4,2.7,7,4.3,7.7,5
			c2.8,2.4,4.2,5.3,4.2,8.7c0,7.2-4.5,12-13.4,14.4c0.2,4.2,0.3,6.6,0.3,7c0,0.3-0.3,0.4-0.9,0.5c-0.4,0.1-1,0.1-1.7,0
			c-0.9-0.1-1.3-0.1-1.2-0.1c-0.3,0-0.9,0-1.5,0.1c-0.7,0.1-1.2,0.1-1.5,0.1c-0.2,0-0.4,0-0.6-0.1c-0.2-0.2-0.2-0.9-0.2-2
			c0-0.9,0.1-2.2,0.2-4c-7.1,0-10.8-0.5-10.9-1.5c0-0.2,0-0.4,0-0.8c0-0.4,0-0.7,0-0.8c0-1.1-0.1-2.3-0.3-3.8
			c-0.1-0.5-0.3-1.3-0.6-2.5c-0.3-1.1-0.5-2-0.5-2.5s0.3-0.8,0.9-0.8c0.7,0,1.8,0.2,3.5,0.6c1.7,0.4,3,0.6,3.9,0.6
			c4.7,0,7-1.5,7-4.4c0-1.5-1.3-3.2-4-5.1c-4.4-3.1-6.9-4.9-7.6-5.6c-2.7-2.6-4-5.4-4-8.6c0-3.5,1.3-6.7,3.9-9.4
			c2.5-2.6,5.5-4.2,9-4.9c0,0.2,0-0.4-0.1-1.9c-0.1-1.1,0-2,0-2.7c0.1-0.9,0.4-1.4,0.8-1.4h6.9c0.3,0,0.5,0.4,0.6,1.2
			c0.1,0.6,0.1,1.4,0,2.4c-0.1,1.4-0.1,2-0.1,1.8c1.6,0.1,4.1,0.7,7.6,1.8c4,1.3,6,2.3,6,3.2c0,0.2-0.1,0.5-0.2,1
			c-0.4,0.8-0.9,2-1.5,3.7c-0.2,0.9-0.5,2.2-1,4C103.1,112.3,102.7,112.6,102.3,112.6z"/>
	</g>
	<g>
		<path style="fill:none;stroke:#004C6D;stroke-width:3;" d="M194.1,41.1c-3.9,10-10.6,27.7-20.3,53.1c-4.7,12.7-12,32.6-21.8,59.8
			h-32.6c5.4-15.1,10.2-29.1,14.4-42.1c1.2-3.8,4.6-14.1,10.2-30.9c-0.9,0.1-2.8,0.5-5.8,1.2c-1.6,0.3-3.5,0.9-5.8,1.7l1.7-24.6
			c6.3-2.3,17.7-6.8,34-13.3c5.1-2.1,11.9-5.1,20.4-8.9L194.1,41.1z"/>
		<path style="fill:none;stroke:#004C6D;stroke-width:3;" d="M265.9,83.4c-3.7,10.4-11.6,23.1-23.8,38.1
			c-10.7,13.1-22.1,25-34.2,35.4l-21.4-3.4c3.3-3.5,6.4-6.8,9.2-10c6.8-7.6,11.7-13.6,14.7-18.1c-8.4,0.1-14.8-2.8-19.3-8.7
			c-5.8-7.7-6.2-18.8-1.1-33.3c4.4-12.4,11.9-22.8,22.6-31.4c10.7-8.6,21.5-12.9,32.5-12.9c10.5,0,17.8,4.2,21.8,12.6
			C270.6,60.1,270.4,70.6,265.9,83.4z M233.3,91.6c1.1-3,1-5.4-0.2-7.4c-1.2-2-3.2-2.9-5.9-2.9c-2.5,0-4.9,0.9-7.2,2.8
			c-2.6,2-4.4,4.7-5.7,8.1c-3.1,8.8,0.3,13.5,10.1,14c1.1-1,2.5-2.9,4.3-5.6C230.8,97.3,232.4,94.3,233.3,91.6z"/>
	</g>
	<g>
		<path style="fill:#004C6D;" d="M35.4,60.8c-0.6-0.2-1-0.2-1.3-0.2c-0.4,0-0.7,0.2-1,0.5c-0.4,0.4-0.5,0.9-0.5,1.5
			c0,0.5,0.3,1.4,1,2.7c0.7,1.3,1,2.5,1,3.6c0,1.6-0.5,2.9-1.5,4c-0.9,1-2.1,1.5-3.5,1.5c-1.3,0-2.2-0.1-2.8-0.3
			c-0.1-0.4-0.2-1.2-0.4-2.2c-0.1-0.5-0.3-1.3-0.5-2.2c0.9,0.3,1.4,0.4,1.7,0.4c1.2,0,1.7-0.5,1.7-1.6c0-0.8-0.2-1.5-0.7-2.1
			c-0.8-0.8-1.5-1.7-2.3-2.5c-1.5-1.6-2.2-3.5-2.2-5.8c0-2.3,0.7-4.1,2.1-5.3c1.2-1,2.8-1.6,4.9-1.6c1.1,0,2.4,0.2,3.9,0.6
			L35.4,60.8z"/>
		<path style="fill:#004C6D;" d="M50.5,51.7l-0.3,9.1c-0.3-0.1-0.8-0.1-1.5-0.2c-0.4,0-1.1-0.1-2-0.1c0,0.6-0.1,1.9-0.2,4.1
			c-0.1,2.1-0.2,5.2-0.4,9.3h-5.6c-0.1-2-0.2-5-0.3-9.2c-0.1-1.4-0.2-2.9-0.2-4.2L38,60.6l-1.7,0.2L36,51.7H50.5z"/>
		<path style="fill:#004C6D;" d="M65.4,74H59l-0.4-1.9c-0.2,0.1-0.6,0.4-1.3,0.9c-0.5,0.4-1,0.9-1.5,1.5l-0.7-1.8
			c-0.1-0.3-0.3-0.8-0.6-1.5L53.9,74h-3.4c0.5-2.4,1.3-6.3,2.3-11.8c0.6-3.7,1.2-7.2,1.6-10.4h7c0.2,1.5,0.8,5,1.8,10.6
			C63.7,65.2,64.4,69.1,65.4,74z M58,69.2c-0.1-0.5-0.4-1.3-0.7-2.5c-0.2-0.6-0.5-1.5-0.9-2.6c-0.2,0.6-0.5,1.5-0.8,2.8
			c-0.2,0.7-0.5,1.7-0.7,3c0.2,0,0.8-0.1,1.6-0.2C56.9,69.6,57.4,69.4,58,69.2z"/>
		<path style="fill:#004C6D;" d="M81.4,60.1c0,1.8-0.4,3.4-1.2,4.7c-0.7,1.2-1.6,2.1-2.7,2.6c0.2,0.4,0.8,1.3,1.7,2.7
			c0.4,0.6,1.1,1.5,2,2.5c-0.4,0.2-1.2,0.6-2.4,1.2c-0.9,0.5-1.7,1-2.5,1.4c-0.2-0.3-0.7-1.2-1.5-2.7c-0.4-0.7-0.9-2-1.6-3.7h0
			L73.2,74h-6.5c-0.1-2.1-0.2-5.6-0.4-10.4c-0.1-2.8-0.2-6.8-0.5-11.8c2.1-0.3,4.1-0.4,5.8-0.4C78.1,51.3,81.4,54.2,81.4,60.1z
			 M76.1,63.2c0-0.9-0.3-1.6-0.9-2c-0.5-0.3-1-0.4-1.7-0.4l-0.1,5c0.6,0,1.2-0.2,1.7-0.5C75.8,64.8,76.1,64.1,76.1,63.2z"/>
		<path style="fill:#004C6D;" d="M96.3,51.7l-0.3,9.1c-0.3-0.1-0.8-0.1-1.5-0.2c-0.4,0-1.1-0.1-2-0.1c0,0.6-0.1,1.9-0.2,4.1
			c-0.1,2.1-0.2,5.2-0.4,9.3h-5.6c-0.1-2-0.2-5-0.3-9.2c-0.1-1.4-0.2-2.9-0.2-4.2l-1.8,0.1l-1.7,0.2l-0.3-9.1H96.3z"/>
		<path style="fill:#004C6D;" d="M109.2,51.7l-0.5,9.2c-0.3-0.1-0.9-0.2-1.9-0.3c-0.7-0.1-1.4-0.1-2.1-0.1l-0.2,2.8
			c0.9,0,2.2,0,4.2-0.1c-0.1,0.4-0.2,1-0.4,2c-0.1,0.6-0.2,1.3-0.3,2c-0.2-0.1-0.8-0.2-1.7-0.3c-0.4,0-1,0-1.9,0l-0.1,3.2
			c0.6,0,1.7-0.1,3.2-0.2c0.3,0,0.8-0.1,1.5-0.3c-0.1,0.3-0.2,1-0.4,2.2c-0.1,0.6-0.2,1.3-0.4,2.2H97.8l-0.3-11.4
			c-0.1-2.6-0.2-6.2-0.5-10.9H109.2z"/>
		<path style="fill:#004C6D;" d="M126.1,63c0,3.5-0.9,6.2-2.6,8.2c-1.8,2.1-4.3,3.1-7.6,3.1c-2.1,0-3.7-0.1-4.8-0.4l-0.3-10.8
			c-0.1-2.8-0.3-6.6-0.5-11.4c1.7-0.3,3.4-0.4,5.3-0.4c3.3,0,5.8,0.9,7.7,2.8C125.1,56.2,126.1,59.2,126.1,63z M121.3,64.8
			c0-1.4-0.4-2.5-1.1-3.1c-0.6-0.6-1.4-0.8-2.3-0.8l-0.2,9.1c1-0.1,1.8-0.5,2.4-1.2C120.9,67.9,121.3,66.6,121.3,64.8z"/>
		<path style="fill:#004C6D;" d="M38.5,109.6h-6.4l-0.4-1.9c-0.2,0.1-0.6,0.4-1.3,0.9c-0.5,0.4-1,0.9-1.5,1.5l-0.7-1.8
			c-0.1-0.3-0.3-0.8-0.6-1.5l-0.6,2.8h-3.4c0.5-2.4,1.3-6.3,2.3-11.8c0.6-3.7,1.2-7.2,1.6-10.4h7c0.2,1.5,0.8,5,1.8,10.6
			C36.8,100.8,37.6,104.7,38.5,109.6z M31.2,104.8c-0.1-0.5-0.4-1.3-0.7-2.5c-0.2-0.6-0.5-1.5-0.9-2.6c-0.2,0.6-0.5,1.5-0.8,2.8
			c-0.2,0.7-0.5,1.7-0.7,3c0.2,0,0.8-0.1,1.6-0.2C30.1,105.2,30.6,105,31.2,104.8z"/>
		<path style="fill:#004C6D;" d="M53.1,87.3l-0.3,9.1c-0.3-0.1-0.8-0.1-1.5-0.2c-0.4,0-1.1-0.1-2-0.1c0,0.6-0.1,1.9-0.2,4.1
			c-0.1,2.1-0.2,5.2-0.4,9.3h-5.6c-0.1-2-0.2-5-0.3-9.2c-0.1-1.4-0.2-2.9-0.2-4.2l-1.8,0.1L39,96.4l-0.3-9.1H53.1z"/>
	</g>
</g>
</svg>
